<svg width="50" height="50" viewBox="0 0 50 50" fill="none" xmlns="http://www.w3.org/2000/svg">
<path d="M30.5429 40.2904C30.9334 40.681 31.5666 40.681 31.9571 40.2904C32.3476 39.8999 32.3476 39.2667 31.9571 38.8762L30.5429 40.2904ZM16.6667 25L15.9596 24.2929C15.772 24.4804 15.6667 24.7348 15.6667 25C15.6667 25.2652 15.772 25.5196 15.9596 25.7071L16.6667 25ZM31.9571 11.1238C32.3476 10.7332 32.3476 10.1001 31.9571 9.70955C31.5666 9.31903 30.9334 9.31903 30.5429 9.70955L31.9571 11.1238ZM31.9571 38.8762L17.3738 24.2929L15.9596 25.7071L30.5429 40.2904L31.9571 38.8762ZM17.3738 25.7071L31.9571 11.1238L30.5429 9.70955L15.9596 24.2929L17.3738 25.7071Z" fill="#A21D22"/>
</svg>
